<?xml version="1.0" encoding="UTF-8" standalone="no"?>
<svg
   xmlns:dc="http://purl.org/dc/elements/1.1/"
   xmlns:cc="http://creativecommons.org/ns#"
   xmlns:rdf="http://www.w3.org/1999/02/22-rdf-syntax-ns#"
   xmlns:svg="http://www.w3.org/2000/svg"
   xmlns="http://www.w3.org/2000/svg"
   xmlns:sodipodi="http://sodipodi.sourceforge.net/DTD/sodipodi-0.dtd"
   xmlns:inkscape="http://www.inkscape.org/namespaces/inkscape"
   width="210mm"
   height="297mm"
   viewBox="0 0 210 297"
   version="1.1"
   id="svg1065"
   sodipodi:docname="schmetterling.svg"
   inkscape:version="1.0.2 (e86c870879, 2021-01-15)">
  <defs
     id="defs1059" />
  <sodipodi:namedview
     id="base"
     pagecolor="#ffffff"
     bordercolor="#666666"
     borderopacity="1.0"
     inkscape:pageopacity="0.0"
     inkscape:pageshadow="2"
     inkscape:zoom="0.35"
     inkscape:cx="400"
     inkscape:cy="902.85714"
     inkscape:document-units="mm"
     inkscape:current-layer="layer1"
     inkscape:document-rotation="0"
     showgrid="false"
     inkscape:window-width="1533"
     inkscape:window-height="811"
     inkscape:window-x="26"
     inkscape:window-y="23"
     inkscape:window-maximized="0" />
  <metadata
     id="metadata1062">
    <rdf:RDF>
      <cc:Work
         rdf:about="">
        <dc:format>image/svg+xml</dc:format>
        <dc:type
           rdf:resource="http://purl.org/dc/dcmitype/StillImage" />
        <dc:title></dc:title>
      </cc:Work>
    </rdf:RDF>
  </metadata>
  <g
     inkscape:label="Layer 1"
     inkscape:groupmode="layer"
     id="layer1">
    <g
       id="g3552"
       transform="matrix(2.4113994,0,0,2.4113994,-281.88199,-221.43718)">
      <path
         id="rect835-30"
         style="fill:#000000;fill-opacity:1;fill-rule:nonzero;stroke:#000000;stroke-width:0.174836;stroke-linecap:round;stroke-linejoin:miter;stroke-miterlimit:4;stroke-dasharray:none;stroke-dashoffset:0;stroke-opacity:1;paint-order:markers stroke fill"
         d="m 470.62109,423.17578 v 20.88672 20.88672 20.88672 20.88672 20.88476 h 20.88672 V 506.72266 485.83594 464.94922 444.0625 h 20.88672 20.88477 20.88672 20.88671 20.88672 20.88672 20.88672 20.88672 20.88477 20.88671 20.88672 v 20.88672 20.88672 20.88672 20.88476 h 20.88672 V 506.72266 485.83594 464.94922 444.0625 423.17578 H 721.25781 700.37109 679.48438 658.59961 637.71289 616.82617 595.93945 575.05273 554.16602 533.2793 512.39453 491.50781 Z m 0,104.4336 v 20.88476 20.88672 20.88672 20.88672 20.88672 20.88671 20.88477 20.88672 20.88672 20.88672 h 20.88672 20.88672 20.88477 20.88672 20.88671 20.88672 20.88672 20.88672 20.88672 20.88477 20.88671 20.88672 20.88672 V 715.58594 694.69922 673.8125 652.92773 632.04102 611.1543 590.26758 569.38086 548.49414 527.60938 h -20.88672 v 20.88476 20.88672 20.88672 20.88672 20.88672 20.88671 20.88477 20.88672 20.88672 H 700.37109 679.48438 658.59961 637.71289 616.82617 595.93945 575.05273 554.16602 533.2793 512.39453 491.50781 V 694.69922 673.8125 652.92773 632.04102 611.1543 590.26758 569.38086 548.49414 527.60938 Z"
         transform="scale(0.26458333)" />
      <path
         id="rect835-62-5-0"
         style="fill:#000000;fill-opacity:1;fill-rule:nonzero;stroke:#000000;stroke-width:0.174836;stroke-linecap:round;stroke-linejoin:miter;stroke-miterlimit:4;stroke-dasharray:none;stroke-dashoffset:0;stroke-opacity:1;paint-order:markers stroke fill"
         d="m 554.16602,464.94922 v 20.88672 20.88672 20.88476 h 20.88671 20.88672 20.88672 v -20.88476 h -20.88672 -20.88672 v -20.88672 h 20.88672 20.88672 v -20.88672 h -20.88672 -20.88672 z m 0,62.66016 v 20.88476 20.88672 h 20.88671 v -20.88672 -20.88476 z"
         transform="scale(0.26458333)" />
      <path
         id="rect835-70-1-0"
         style="fill:#000000;fill-opacity:1;fill-rule:nonzero;stroke:#000000;stroke-width:0.174836;stroke-linecap:round;stroke-linejoin:miter;stroke-miterlimit:4;stroke-dasharray:none;stroke-dashoffset:0;stroke-opacity:1;paint-order:markers stroke fill"
         d="m 637.71289,464.94922 v 20.88672 20.88672 20.88476 h 20.88672 20.88477 20.88671 v -20.88476 -20.88672 -20.88672 h -20.88671 -20.88477 z m 20.88672,20.88672 h 20.88477 v 20.88672 h -20.88477 z m 20.88477,41.77344 v 20.88476 h -20.88477 -20.88672 v 20.88672 h 20.88672 20.88477 20.88671 v -20.88672 -20.88476 z"
         transform="scale(0.26458333)" />
      <path
         id="rect835-626-3-0"
         style="fill:#000000;fill-opacity:1;fill-rule:nonzero;stroke:#000000;stroke-width:0.174836;stroke-linecap:round;stroke-linejoin:miter;stroke-miterlimit:4;stroke-dasharray:none;stroke-dashoffset:0;stroke-opacity:1;paint-order:markers stroke fill"
         d="m 512.39453,464.94922 v 20.88672 20.88672 20.88476 h 20.88477 v -20.88476 -20.88672 -20.88672 z m 0,62.66016 v 20.88476 20.88672 h 20.88477 v -20.88672 -20.88476 z"
         transform="scale(0.26458333)" />
      <path
         id="rect835-35-4-0-0"
         style="fill:#000000;fill-opacity:1;fill-rule:nonzero;stroke:#000000;stroke-width:0.174836;stroke-linecap:round;stroke-linejoin:miter;stroke-miterlimit:4;stroke-dasharray:none;stroke-dashoffset:0;stroke-opacity:1;paint-order:markers stroke fill"
         d="m 512.39453,590.26758 v 20.88672 20.88672 20.88671 20.88477 20.88672 h 20.88477 20.88672 20.88671 V 673.8125 652.92773 632.04102 611.1543 590.26758 H 554.16602 533.2793 Z m 20.88477,20.88672 h 20.88672 v 20.88672 H 533.2793 Z m 0,41.77343 h 20.88672 V 673.8125 H 533.2793 Z"
         transform="scale(0.26458333)" />
      <path
         id="rect835-70-1-4-7"
         style="fill:#000000;fill-opacity:1;fill-rule:nonzero;stroke:#000000;stroke-width:0.174836;stroke-linecap:round;stroke-linejoin:miter;stroke-miterlimit:4;stroke-dasharray:none;stroke-dashoffset:0;stroke-opacity:1;paint-order:markers stroke fill"
         d="m 637.71289,590.26758 v 20.88672 20.88672 20.88671 20.88477 20.88672 h 20.88672 20.88477 V 673.8125 h -20.88477 v -20.88477 h 20.88477 V 632.04102 H 658.59961 V 611.1543 h 20.88477 v -20.88672 h -20.88477 z m 41.77149,20.88672 v 20.88672 h 20.88671 V 611.1543 Z m 0,41.77343 v 20.88477 h 20.88671 v -20.88477 z"
         transform="scale(0.26458333)" />
    </g>
  </g>
</svg>
